<svg viewBox="0 0 1000 1000" xmlns="http://www.w3.org/2000/svg">
  <linearGradient id="bgGradient" x="0%" y1="0%" x2="100%" y2="100%">
    <stop offset="0%" stop-color="darkorchid" />
    <stop offset="100%" stop-color="orchid" />
  </linearGradient>
  <rect
      x="0" y="0"
      width="100%" height="100%"
      fill="url(#bgGradient)"
  />
  <path
      d="
        M 125 450
        m 0 120
        v -80
        a 40 40 0 0 1 40 -40
        h 180
        v 120
        h -40
        v -40
        a 20 20 0 1 0 -10 0
        h 10
        v 40
        h -60
        v -40
        a 20 20 0 1 0 -10 0
        h 10
        v 40
        h -60
        v -40
        a 20 20 0 1 0 -10 0
        h 10
        v 40
        Z
        v 240
        a 40 40 0 0 0 40 40
        h 470
        a 40 40 0 0 0 40 -40
        v -130
        h -60
        v 90
        a 20 20 0 0 1 -20 20
        h -390
        a 20 20 0 0 1 -20 -20
        v -200
        Z
        m 140 40
        l 70 70
        l -70 70
        l -20 -20
        l 50 -50
        l -50 -50
        Z
      "
    fill="limegreen"
  />
  <path
      d="
        M 375 250
        m 0 120
        v -80
        a 40 40 0 0 1 40 -40
        h 470
        a 40 40 0 0 1 40 40
        v 80
        h -370
        v -40
        a 20 20 0 1 0 -10 0
        h 10
        v 40
        h -60
        v -40
        a 20 20 0 1 0 -10 0
        h 10
        v 40
        h -60
        v -40
        a 20 20 0 1 0 -10 0
        h 10
        v 40
        Z
        v 240
        a 40 40 0 0 0 40 40
        h 470
        a 40 40 0 0 0 40 -40
        v -240
        h -60
        v 200
        a 20 20 0 0 1 -20 20
        h -390
        a 20 20 0 0 1 -20 -20
        v -200
        Z
        m 140 40
        l 70 70
        l -70 70
        l -20 -20
        l 50 -50
        l -50 -50
        Z
      "
    fill="orange"
  />
  <path
    d="
      M 100 450
      a 300 200 0 0 1 250 -200
      m 0 0
      l -100 -50
      m 100 50
      l -50 100
    "
    fill="none"
    stroke="purple"
    stroke-linecap="round"
    stroke-width="50"
  />
</svg>
